<?xml version="1.0" encoding="iso-8859-1"?>
<!-- Generator: Adobe Illustrator 19.0.0, SVG Export Plug-In . SVG Version: 6.00 Build 0)  -->
<svg version="1.1" id="Capa_1" xmlns="http://www.w3.org/2000/svg" xmlns:xlink="http://www.w3.org/1999/xlink" x="0px" y="0px"
	 viewBox="0 0 429.653 429.653" style="enable-background:new 0 0 429.653 429.653;" xml:space="preserve">
<path d="M428.16,82.347l-98.027-82.24l-27.413,32.64l98.027,82.24L428.16,82.347z M126.933,32.64L99.52,0L1.493,82.24l27.413,32.64
	L126.933,32.64L126.933,32.64z M225.493,130.987h-32v128l101.227,60.907l16.107-26.347l-85.333-50.56V130.987z M214.72,45.653
	c-106.133,0-191.893,85.973-191.893,192s85.76,192,191.893,192s192.107-85.973,192.107-192S320.853,45.653,214.72,45.653z
	 M214.827,386.987c-82.453,0-149.333-66.88-149.333-149.333S132.373,88.32,214.827,88.32S364.16,155.2,364.16,237.653
	S297.387,386.987,214.827,386.987z"/>
<g>
</g>
<g>
</g>
<g>
</g>
<g>
</g>
<g>
</g>
<g>
</g>
<g>
</g>
<g>
</g>
<g>
</g>
<g>
</g>
<g>
</g>
<g>
</g>
<g>
</g>
<g>
</g>
<g>
</g>
</svg>
