<svg id="Ebene_1" data-name="Ebene 1" xmlns="http://www.w3.org/2000/svg" viewBox="0 0 256 256"><title>_weatherIconwaterdrop_Icon</title><path d="M128,42.78c55.52,55.5,57.74,114,57.74,114a57.72,57.72,0,1,1-115.44,0S72.48,98.28,128,42.78Z"/><path d="M128,217.53a60.84,60.84,0,0,1-60.75-60.79c.1-2.55,2.88-60.41,58.59-116.11L128,38.47l2.15,2.16c55.73,55.7,58.54,113.56,58.64,116A60.89,60.89,0,0,1,128,217.53Zm0-170.4C76.14,100.4,73.35,156.29,73.33,156.86a54.67,54.67,0,0,0,109.34-.12C182.65,156.29,179.84,100.4,128,47.13Z"/></svg>