<svg id="Ebene_1" data-name="Ebene 1" xmlns="http://www.w3.org/2000/svg" viewBox="0 0 256 256"><title>weatherIcon_38</title><path d="M170.29,216.3H57.9c-22.83,0-40-16.4-40-38.14a39.88,39.88,0,0,1,25.67-37.4,32.94,32.94,0,0,1-.43-5.36,33.31,33.31,0,0,1,33.27-33.27,33,33,0,0,1,18,5.31,48.63,48.63,0,0,1,89.75,25.95,49.29,49.29,0,0,1-.37,5.14,40.06,40.06,0,0,1-13.49,77.77ZM76.36,112.7a22.71,22.71,0,0,0-21.52,29.94,5.28,5.28,0,0,1-3.78,6.83,29.37,29.37,0,0,0-22.64,28.69c0,15.71,12.67,27.57,29.48,27.57H170.29A29.48,29.48,0,0,0,177,147.54a5.27,5.27,0,0,1-4.37-5.2,6.11,6.11,0,0,1,.07-.86,72.89,72.89,0,0,0,.86-8.09,38.06,38.06,0,0,0-72.72-15.7,5.29,5.29,0,0,1-8.54,1.57A22.56,22.56,0,0,0,76.36,112.7Z"/><path d="M184.79,140.22a5.29,5.29,0,1,1,0-10.57c18.44,0,35.08-11.87,41-27.46a38.84,38.84,0,0,1-54.39-48.9c-14.13,5.66-23,17.88-23,33a5.29,5.29,0,1,1-10.57,0c0-24.69,17.87-43.39,44.47-46.52a5.29,5.29,0,0,1,4.47,8.87,28.26,28.26,0,1,0,42.49,37.21,5.28,5.28,0,0,1,9.38,3.26c0,.23,0,.47,0,.7C238.73,116.66,213.52,140.22,184.79,140.22Z"/></svg>