<svg id="Ebene_1" data-name="Ebene 1" xmlns="http://www.w3.org/2000/svg" viewBox="0 0 256 256"><title>weatherIcon_19</title><path d="M187.24,183.69a5.29,5.29,0,0,1,0-10.58A34.16,34.16,0,0,0,195,105.69a5.28,5.28,0,0,1-4.4-5.21,4.8,4.8,0,0,1,.07-.85,82.18,82.18,0,0,0,1-9.3,43.89,43.89,0,0,0-83.86-18.11,5.3,5.3,0,0,1-8.54,1.58,26.47,26.47,0,0,0-43.69,27.25,5.3,5.3,0,0,1-3.79,6.84,34,34,0,0,0-26.23,33.23c0,18.24,14.69,32,34.16,32a5.29,5.29,0,1,1,0,10.58c-25.5,0-44.73-18.3-44.73-42.57a44.53,44.53,0,0,1,29.21-42A37.09,37.09,0,0,1,80.68,55.58a36.76,36.76,0,0,1,20.68,6.3,54.47,54.47,0,0,1,100.9,28.45,59.26,59.26,0,0,1-.48,6.32,44.74,44.74,0,0,1-14.54,87Z"/><path d="M123.49,225.54A3.53,3.53,0,0,1,120,222V134.78a3.53,3.53,0,0,1,7.05,0V222A3.53,3.53,0,0,1,123.49,225.54Z"/><path d="M167.1,181.92H79.87a3.53,3.53,0,0,1,0-7H167.1a3.53,3.53,0,0,1,0,7Z"/><path d="M86.92,194.55a3.52,3.52,0,0,1-2.49-6L94.57,178.4,84.43,168.26a3.52,3.52,0,1,1,5-5L102,175.91a3.52,3.52,0,0,1,0,5L89.41,193.52A3.5,3.5,0,0,1,86.92,194.55Z"/><path d="M160.05,194.55a3.5,3.5,0,0,1-2.49-1l-12.63-12.63a3.54,3.54,0,0,1,0-5l12.63-12.62a3.52,3.52,0,1,1,5,5L152.41,178.4l10.13,10.14a3.52,3.52,0,0,1-2.49,6Z"/><path d="M136.12,218.49a3.53,3.53,0,0,1-2.5-1l-10.13-10.14-10.14,10.14a3.53,3.53,0,1,1-5-5L121,199.84a3.64,3.64,0,0,1,5,0l12.63,12.63a3.53,3.53,0,0,1-2.49,6Z"/><path d="M123.49,158h0a3.5,3.5,0,0,1-2.5-1l-12.63-12.63a3.52,3.52,0,1,1,5-5l10.14,10.14,10.13-10.14a3.53,3.53,0,0,1,5,5L126,157A3.53,3.53,0,0,1,123.49,158Z"/><path d="M92.65,212.76a3.52,3.52,0,0,1-2.5-6l61.69-61.68a3.52,3.52,0,0,1,5,5L95.14,211.73A3.5,3.5,0,0,1,92.65,212.76Z"/><path d="M154.33,212.76a3.49,3.49,0,0,1-2.49-1L90.15,150.05a3.52,3.52,0,0,1,5-5l61.68,61.68a3.52,3.52,0,0,1-2.49,6Z"/></svg>