<svg id="Ebene_1" data-name="Ebene 1" xmlns="http://www.w3.org/2000/svg" viewBox="0 0 256 256"><title>weatherIcon_7</title><path d="M194.11,204.44H61.89c-26.33,0-46.19-18.89-46.19-43.95A46,46,0,0,1,46,117.1a38.66,38.66,0,0,1-.62-6.9,38.22,38.22,0,0,1,59.72-31.59,56.27,56.27,0,0,1,104.36,29.22,61,61,0,0,1-.51,6.69,46.19,46.19,0,0,1-14.86,89.92ZM83.61,82.57A27.64,27.64,0,0,0,57.41,119a5.3,5.3,0,0,1-3.79,6.84,35.46,35.46,0,0,0-27.34,34.64c0,19,15.31,33.38,35.61,33.38H194.11a35.62,35.62,0,0,0,8.12-70.3,5.29,5.29,0,0,1-4.41-5.21,4.8,4.8,0,0,1,.07-.85,85.61,85.61,0,0,0,1-9.68A45.7,45.7,0,0,0,111.58,89,5.29,5.29,0,0,1,103,90.55,27.47,27.47,0,0,0,83.61,82.57Z"/></svg>