<svg id="Ebene_1" data-name="Ebene 1" xmlns="http://www.w3.org/2000/svg" viewBox="0 0 256 256"><title>weatherIcon_23</title><path d="M177.6,173.6h-120c-24.18,0-42.41-17.36-42.41-40.38a42.23,42.23,0,0,1,27.45-39.7,35.66,35.66,0,0,1-.5-6A35.18,35.18,0,0,1,96.68,58.21,51.56,51.56,0,0,1,192,85.42a55.64,55.64,0,0,1-.42,5.74,42.41,42.41,0,0,1-14,82.44ZM77.3,63A24.62,24.62,0,0,0,52.71,87.57,24.35,24.35,0,0,0,54,95.41a5.28,5.28,0,0,1-3.79,6.84,31.7,31.7,0,0,0-24.44,31c0,17,13.69,29.8,31.84,29.8h120a31.83,31.83,0,0,0,7.25-62.83A5.29,5.29,0,0,1,180.48,95a4.8,4.8,0,0,1,.07-.85,77.56,77.56,0,0,0,.92-8.71,41,41,0,0,0-78.34-16.91,5.34,5.34,0,0,1-1.08,1.55,5.27,5.27,0,0,1-7.45,0A24.47,24.47,0,0,0,77.3,63Z"/><path d="M210.82,120a5.29,5.29,0,0,1-2.32-10,41.41,41.41,0,0,0-25.4-78,40.91,40.91,0,0,0-23.69,13.21,5.29,5.29,0,1,1-7.89-7,51.5,51.5,0,0,1,29.74-16.59,52,52,0,0,1,31.88,97.89A5.36,5.36,0,0,1,210.82,120Z"/><path d="M75.68,202.12A6.72,6.72,0,1,1,69,195.4,6.72,6.72,0,0,1,75.68,202.12Z"/><path d="M69,210.6a8.48,8.48,0,1,1,8.49-8.48A8.48,8.48,0,0,1,69,210.6Zm0-13.44a5,5,0,1,0,5,5A5,5,0,0,0,69,197.16Z"/><path d="M124.32,202.12a6.73,6.73,0,1,1-6.73-6.72A6.72,6.72,0,0,1,124.32,202.12Z"/><path d="M117.59,210.6a8.48,8.48,0,1,1,8.49-8.48A8.49,8.49,0,0,1,117.59,210.6Zm0-13.44a5,5,0,1,0,5,5A5,5,0,0,0,117.59,197.16Z"/><path d="M173,202.12a6.73,6.73,0,1,1-6.72-6.72A6.72,6.72,0,0,1,173,202.12Z"/><path d="M166.23,210.6a8.48,8.48,0,1,1,8.48-8.48A8.49,8.49,0,0,1,166.23,210.6Zm0-13.44a5,5,0,1,0,5,5A5,5,0,0,0,166.23,197.16Z"/><path d="M100.35,226.79a6.72,6.72,0,1,1-6.72-6.72A6.72,6.72,0,0,1,100.35,226.79Z"/><path d="M93.63,235.28a8.49,8.49,0,1,1,8.49-8.49A8.5,8.5,0,0,1,93.63,235.28Zm0-13.45a5,5,0,1,0,5,5A5,5,0,0,0,93.63,221.83Z"/><path d="M149,226.79a6.73,6.73,0,1,1-6.73-6.72A6.72,6.72,0,0,1,149,226.79Z"/><path d="M142.26,235.28a8.49,8.49,0,1,1,8.49-8.49A8.5,8.5,0,0,1,142.26,235.28Zm0-13.45a5,5,0,1,0,5,5A5,5,0,0,0,142.26,221.83Z"/></svg>