<svg id="Ebene_1" data-name="Ebene 1" xmlns="http://www.w3.org/2000/svg" viewBox="0 0 256 256"><title>weatherIcon_3</title><path d="M148.35,211.86H50.09c-20.34,0-35.68-14.62-35.68-34a35.53,35.53,0,0,1,22.37-33.12,29.78,29.78,0,0,1,29.45-34A29.65,29.65,0,0,1,81.8,115.1a43.18,43.18,0,0,1,79.33,23.61c0,1.17-.12,2.65-.27,4a35.68,35.68,0,0,1-12.51,69.1ZM66.23,121.29a19.19,19.19,0,0,0-18.18,25.3,5.29,5.29,0,0,1-3.79,6.83A25,25,0,0,0,25,177.84c0,13.37,10.79,23.45,25.1,23.45h98.26a25.11,25.11,0,0,0,5.78-49.55,5.29,5.29,0,0,1-4.38-5.21,4.8,4.8,0,0,1,.07-.85,61.29,61.29,0,0,0,.74-7,32.61,32.61,0,0,0-62.31-13.45,5.28,5.28,0,0,1-8.53,1.57A19.09,19.09,0,0,0,66.23,121.29Z"/><path d="M175.55,167.93a5.28,5.28,0,0,1-2.32-10,33.08,33.08,0,0,0,18-35.34,32.94,32.94,0,0,0-57-16.19,5.28,5.28,0,0,1-7.89-7,43.51,43.51,0,0,1,75.32,21.37,43.69,43.69,0,0,1-23.74,46.69A5.27,5.27,0,0,1,175.55,167.93Z"/><path d="M158.83,69.56a5.28,5.28,0,0,1-5.28-5.26l-.1-14.84a5.29,5.29,0,0,1,5.26-5.32h0A5.3,5.3,0,0,1,164,49.39l.09,14.85a5.28,5.28,0,0,1-5.25,5.32Z"/><path d="M221.45,139.39a5.29,5.29,0,0,1,0-10.57l14.85-.1a5.29,5.29,0,0,1,.07,10.58l-14.85.09Z"/><path d="M206.16,88.47a5.28,5.28,0,0,1-3.76-9l10.44-10.56a5.29,5.29,0,1,1,7.52,7.43L209.93,86.9A5.28,5.28,0,0,1,206.16,88.47Z"/><path d="M107.8,88.47A5.27,5.27,0,0,1,104,86.9L93.61,76.34a5.29,5.29,0,1,1,7.53-7.43l10.42,10.56a5.28,5.28,0,0,1-3.76,9Z"/><path d="M210.78,193.11a5.25,5.25,0,0,1-3.76-1.57L196.59,181a5.29,5.29,0,1,1,7.52-7.43l10.43,10.56a5.28,5.28,0,0,1-3.76,9Z"/></svg>