<svg id="Ebene_1" data-name="Ebene 1" xmlns="http://www.w3.org/2000/svg" viewBox="0 0 256 256"><title>weatherIcon_22</title><path d="M191.2,170.68H63.68c-25.5,0-44.73-18.3-44.73-42.57a44.55,44.55,0,0,1,29.21-42,37.47,37.47,0,0,1-.57-6.53,37.05,37.05,0,0,1,57.72-30.74,54.47,54.47,0,0,1,100.9,28.45,59.26,59.26,0,0,1-.48,6.32,44.73,44.73,0,0,1-14.53,87ZM84.63,53.15A26.49,26.49,0,0,0,58.16,79.61a26.19,26.19,0,0,0,1.38,8.44,5.29,5.29,0,0,1-3.79,6.83,34,34,0,0,0-26.23,33.23c0,18.24,14.69,32,34.16,32H191.2A34.16,34.16,0,0,0,199,92.69a5.29,5.29,0,0,1-4.41-5.21,4.91,4.91,0,0,1,.07-.86,81.93,81.93,0,0,0,1-9.3,43.88,43.88,0,0,0-83.86-18.1,5.29,5.29,0,0,1-8.53,1.57A26.32,26.32,0,0,0,84.63,53.15Z"/><path d="M87.71,192.86A6.73,6.73,0,1,1,81,186.14,6.72,6.72,0,0,1,87.71,192.86Z"/><path d="M81,201.34a8.48,8.48,0,1,1,8.49-8.48A8.49,8.49,0,0,1,81,201.34Zm0-13.44a5,5,0,1,0,5,5A5,5,0,0,0,81,187.9Z"/><path d="M136.34,192.86a6.72,6.72,0,1,1-6.73-6.72A6.72,6.72,0,0,1,136.34,192.86Z"/><path d="M129.61,201.34a8.48,8.48,0,1,1,8.49-8.48A8.49,8.49,0,0,1,129.61,201.34Zm0-13.44a5,5,0,1,0,5,5A5,5,0,0,0,129.61,187.9Z"/><path d="M185,192.86a6.72,6.72,0,1,1-6.72-6.72A6.72,6.72,0,0,1,185,192.86Z"/><path d="M178.25,201.34a8.48,8.48,0,1,1,8.48-8.48A8.48,8.48,0,0,1,178.25,201.34Zm0-13.44a5,5,0,1,0,5,5A5,5,0,0,0,178.25,187.9Z"/><path d="M112.38,217.53a6.73,6.73,0,1,1-6.73-6.72A6.72,6.72,0,0,1,112.38,217.53Z"/><path d="M105.65,226a8.48,8.48,0,1,1,8.49-8.48A8.49,8.49,0,0,1,105.65,226Zm0-13.44a5,5,0,1,0,5,5A5,5,0,0,0,105.65,212.57Z"/><path d="M161,217.53a6.72,6.72,0,1,1-6.73-6.72A6.72,6.72,0,0,1,161,217.53Z"/><path d="M154.28,226a8.48,8.48,0,1,1,8.49-8.48A8.49,8.49,0,0,1,154.28,226Zm0-13.44a5,5,0,1,0,5,5A5,5,0,0,0,154.28,212.57Z"/></svg>