<svg id="Ebene_1" data-name="Ebene 1" xmlns="http://www.w3.org/2000/svg" viewBox="0 0 256 256"><title>weatherIcon_39</title><path d="M157.63,176.41H69.12c-18.62,0-32.66-13.39-32.66-31.16a32.52,32.52,0,0,1,20.1-30.17A27.34,27.34,0,0,1,97.53,88a39.42,39.42,0,0,1,72.14,22c0,1-.09,2.15-.2,3.31a32.66,32.66,0,0,1-11.84,63.11Zm-74-81.58a16.77,16.77,0,0,0-16.75,16.75,16.56,16.56,0,0,0,.87,5.34A5.27,5.27,0,0,1,64,123.75a22,22,0,0,0-17,21.5c0,11.74,9.5,20.59,22.09,20.59h88.51a22.1,22.1,0,0,0,5.11-43.59,5.29,5.29,0,0,1-4.37-5.21,4.8,4.8,0,0,1,.07-.85,54.84,54.84,0,0,0,.66-6.2A28.85,28.85,0,0,0,104,98a5.28,5.28,0,0,1-8.55,1.63A16.7,16.7,0,0,0,83.66,94.83Z"/><path d="M173.5,123.76a5.29,5.29,0,1,1,0-10.58c18.44,0,35.08-11.86,41-27.45a38.84,38.84,0,0,1-54.39-48.91c-14.13,5.66-23,17.88-23,33a5.29,5.29,0,1,1-10.58,0c0-24.69,17.88-43.38,44.48-46.51a5.29,5.29,0,0,1,4.47,8.87A28.26,28.26,0,1,0,218,69.36a5.28,5.28,0,0,1,9.38,3.24c0,.27,0,.5,0,.73C227.44,100.19,202.23,123.76,173.5,123.76Z"/><path d="M74.65,193.37C84.2,202.91,84.58,213,84.58,213a9.93,9.93,0,1,1-19.86,0S65.1,202.91,74.65,193.37Z"/><path d="M74.65,223.43A10.46,10.46,0,0,1,64.2,213c0-.44.49-10.4,10.08-20l.37-.37L75,193c9.59,9.58,10.07,19.54,10.09,20A10.48,10.48,0,0,1,74.65,223.43Zm0-29.32c-8.94,9.19-9.4,18.79-9.4,18.89a9.41,9.41,0,0,0,18.81,0C84.05,212.9,83.57,203.28,74.65,194.11Z"/><path d="M151.31,193.37c9.55,9.55,9.93,19.61,9.93,19.61a9.93,9.93,0,0,1-19.86,0S141.76,202.92,151.31,193.37Z"/><path d="M151.31,223.43A10.46,10.46,0,0,1,140.86,213c0-.44.5-10.39,10.08-20l.37-.37.37.37c9.59,9.59,10.07,19.54,10.09,20A10.47,10.47,0,0,1,151.31,223.43Zm0-29.31c-8.94,9.18-9.4,18.78-9.41,18.88a9.41,9.41,0,0,0,18.82,0C160.71,212.9,160.23,203.29,151.31,194.12Z"/><path d="M113,202.69c9.55,9.55,9.93,19.6,9.93,19.6a9.93,9.93,0,1,1-19.86,0S103.43,212.24,113,202.69Z"/><path d="M113,232.75a10.46,10.46,0,0,1-10.45-10.46c0-.44.49-10.39,10.08-20L113,202l.37.37c9.58,9.58,10.07,19.53,10.08,20A10.47,10.47,0,0,1,113,232.75Zm0-29.32c-8.92,9.17-9.4,18.79-9.4,18.88a9.41,9.41,0,0,0,18.81,0C122.38,222.22,121.9,212.6,113,203.43Z"/></svg>