<svg id="Ebene_1" data-name="Ebene 1" xmlns="http://www.w3.org/2000/svg" viewBox="0 0 256 256"><title>weatherIcon_15</title><polygon points="112.17 167.46 86.18 199.92 111.11 200.23 82.29 238.24 167.87 190.87 137.83 190.71 153.73 167.46 112.17 167.46"/><path d="M82.29,240a1.74,1.74,0,0,1-1.33-.61,1.76,1.76,0,0,1-.08-2.22L107.6,202l-21.44-.27a1.76,1.76,0,0,1-1.36-2.86l26-32.46a1.77,1.77,0,0,1,1.38-.67h41.56a1.76,1.76,0,0,1,1.45,2.76l-14,20.52,26.72.14a1.76,1.76,0,0,1,.84,3.3L83.14,239.78A1.74,1.74,0,0,1,82.29,240Zm7.52-41.8,21.32.27a1.75,1.75,0,0,1,1.39,2.82L88.73,232.66l72.38-40.06-23.29-.12a1.76,1.76,0,0,1-1.44-2.76l14-20.5H113Z"/><path d="M194,168.17H62.41c-26.22,0-46-18.81-46-43.75a45.8,45.8,0,0,1,30.17-43.2A38.06,38.06,0,0,1,105.41,42.9,56,56,0,0,1,209.3,72a62.54,62.54,0,0,1-.51,6.64A46,46,0,0,1,194,168.17ZM84,46.9A27.51,27.51,0,0,0,58,83.14,5.27,5.27,0,0,1,54.18,90,35.27,35.27,0,0,0,27,124.42c0,18.91,15.22,33.18,35.41,33.18H194A35.42,35.42,0,0,0,202,87.7a5.28,5.28,0,0,1-4.4-5.21,5,5,0,0,1,.07-.86,84.6,84.6,0,0,0,1-9.62,45.45,45.45,0,0,0-86.85-18.75,5.28,5.28,0,0,1-8.53,1.58A27.32,27.32,0,0,0,84,46.9Z"/></svg>