<svg id="Ebene_1" data-name="Ebene 1" xmlns="http://www.w3.org/2000/svg" viewBox="0 0 256 256"><title>weatherIcon_41</title><path d="M152,175.2H63.5c-18.62,0-32.66-13.4-32.66-31.16a32.52,32.52,0,0,1,20.1-30.17,27.35,27.35,0,0,1,41-27.06,39.42,39.42,0,0,1,72.14,22c0,1-.09,2.15-.2,3.31A32.66,32.66,0,0,1,152,175.2ZM78,93.62a16.77,16.77,0,0,0-15.88,22.1,5.23,5.23,0,0,1-.39,4.25,5.29,5.29,0,0,1-3.4,2.58,22,22,0,0,0-17,21.49c0,11.74,9.5,20.59,22.09,20.59H152a22.09,22.09,0,0,0,5-43.6,5.29,5.29,0,0,1-4.3-5.2,4.8,4.8,0,0,1,.07-.85,56.72,56.72,0,0,0,.66-6.2,28.85,28.85,0,0,0-55.12-11.9,5.29,5.29,0,0,1-8.54,1.58A16.65,16.65,0,0,0,78,93.62Z"/><path d="M167.88,122.54a5.29,5.29,0,1,1,0-10.57c18.44,0,35.08-11.87,41-27.46a38.85,38.85,0,0,1-54.4-48.9c-14.12,5.67-23,17.89-23,33a5.29,5.29,0,0,1-10.58,0c0-24.69,17.88-43.38,44.48-46.52A5.29,5.29,0,0,1,169.92,31a28.26,28.26,0,1,0,42.49,37.2,5.29,5.29,0,0,1,9.38,3.26c0,.22,0,.46,0,.71C221.82,99,196.61,122.54,167.88,122.54Z"/><polygon points="95.24 172.16 73.19 199.69 94.35 199.96 69.89 232.2 142.49 192.02 117.01 191.89 130.5 172.16 95.24 172.16"/><path d="M69.89,234a1.75,1.75,0,0,1-1.4-2.82l22.34-29.46-17.66-.22a1.76,1.76,0,0,1-1.35-2.87l22.05-27.53a1.74,1.74,0,0,1,1.37-.66H130.5a1.75,1.75,0,0,1,1.45,2.75l-11.61,17,22.16.12a1.76,1.76,0,0,1,.84,3.3L70.75,233.74A1.78,1.78,0,0,1,69.89,234Zm6.94-36,17.54.22A1.76,1.76,0,0,1,95.75,201l-19.41,25.6,59.39-32.87-18.73-.1a1.76,1.76,0,0,1-1.44-2.76l11.6-17H96.09Z"/></svg>