<svg id="Ebene_1" data-name="Ebene 1" xmlns="http://www.w3.org/2000/svg" viewBox="0 0 256 256"><title>weatherIcon_39_1</title><path d="M65.88,216a4.68,4.68,0,0,1-.74-.05,5.29,5.29,0,0,1-4.5-6l2.74-19.36a5.29,5.29,0,1,1,10.47,1.48l-2.74,19.36A5.27,5.27,0,0,1,65.88,216Z"/><path d="M91.5,235.15a4.84,4.84,0,0,1-.75-.06,5.28,5.28,0,0,1-4.49-6l5.47-38.48a5.28,5.28,0,0,1,10.46,1.48L96.73,230.6A5.29,5.29,0,0,1,91.5,235.15Z"/><path d="M120.86,235.15a4.93,4.93,0,0,1-.75-.06,5.28,5.28,0,0,1-4.49-6l5.47-38.48a5.29,5.29,0,0,1,10.47,1.48l-5.47,38.48A5.29,5.29,0,0,1,120.86,235.15Z"/><path d="M151.94,216a4.68,4.68,0,0,1-.74-.05,5.29,5.29,0,0,1-4.5-6l2.74-19.36a5.29,5.29,0,1,1,10.47,1.48l-2.74,19.36A5.27,5.27,0,0,1,151.94,216Z"/><path d="M154.86,172H66.35c-18.63,0-32.67-13.4-32.67-31.17a32.54,32.54,0,0,1,20.1-30.17,29,29,0,0,1-.22-3.5A27.34,27.34,0,0,1,94.75,83.63a39.42,39.42,0,0,1,72.14,22c0,1-.08,2.14-.2,3.3A32.67,32.67,0,0,1,154.86,172Zm-74-81.59A16.79,16.79,0,0,0,65,112.52a5.28,5.28,0,0,1-3.79,6.84,22,22,0,0,0-17,21.49c0,11.74,9.49,20.59,22.09,20.59h88.51A22.09,22.09,0,0,0,160,117.85a5.28,5.28,0,0,1-4.36-5.21,4.76,4.76,0,0,1,.07-.84,54.84,54.84,0,0,0,.66-6.2A28.85,28.85,0,0,0,101.2,93.69a5.29,5.29,0,0,1-8.53,1.59A16.67,16.67,0,0,0,80.88,90.43Z"/><path d="M170.72,119.36a5.29,5.29,0,1,1,0-10.57c18.44,0,35.08-11.87,41-27.46a38.84,38.84,0,0,1-54.39-48.9c-14.12,5.66-23,17.88-23,33a5.29,5.29,0,0,1-10.57,0c0-24.7,17.87-43.39,44.48-46.52a5.28,5.28,0,0,1,4.46,8.87A28.26,28.26,0,1,0,215.25,65a5.28,5.28,0,0,1,9.38,3.23c0,.25,0,.49,0,.73C224.67,95.8,199.46,119.36,170.72,119.36Z"/></svg>