<svg id="Ebene_1" data-name="Ebene 1" xmlns="http://www.w3.org/2000/svg" viewBox="0 0 256 256"><title>weatherIcon_13</title><path d="M70.91,222.29a4.71,4.71,0,0,1-.74-.06,5.28,5.28,0,0,1-4.5-6L68.4,196.9a5.29,5.29,0,0,1,10.47,1.48l-2.73,19.36A5.29,5.29,0,0,1,70.91,222.29Z"/><path d="M96.53,241.41a6.3,6.3,0,0,1-.75,0,5.29,5.29,0,0,1-4.49-6l5.46-38.48a5.29,5.29,0,0,1,10.47,1.48l-5.46,38.49A5.3,5.3,0,0,1,96.53,241.41Z"/><path d="M125.89,241.41a6.3,6.3,0,0,1-.75,0,5.29,5.29,0,0,1-4.49-6l5.47-38.48a5.29,5.29,0,1,1,10.47,1.49l-5.47,38.48A5.3,5.3,0,0,1,125.89,241.41Z"/><path d="M157,222.29a4.71,4.71,0,0,1-.74-.06,5.28,5.28,0,0,1-4.5-6l2.73-19.36a5.29,5.29,0,0,1,10.47,1.48l-2.73,19.36A5.29,5.29,0,0,1,157,222.29Z"/><path d="M176.79,179.17h-120c-24.18,0-42.41-17.35-42.41-40.37A42.24,42.24,0,0,1,41.83,99.09a34.6,34.6,0,0,1-.5-5.94A35.19,35.19,0,0,1,95.87,63.78,51.57,51.57,0,0,1,191.24,91a53.32,53.32,0,0,1-.43,5.74,42.4,42.4,0,0,1-14,82.43ZM76.5,68.55A24.61,24.61,0,0,0,53.18,101a5.29,5.29,0,0,1-3.79,6.83A31.71,31.71,0,0,0,25,138.8c0,17,13.69,29.8,31.84,29.8h120a31.84,31.84,0,0,0,7.26-62.84,5.29,5.29,0,0,1-4.38-5.21,6,6,0,0,1,.07-.85,77.88,77.88,0,0,0,.92-8.7,41,41,0,0,0-78.34-16.92,5.27,5.27,0,0,1-8.52,1.58A24.5,24.5,0,0,0,76.5,68.55Z"/><path d="M210,125.52a5.29,5.29,0,0,1-2.32-10,41.41,41.41,0,0,0-25.41-78,41,41,0,0,0-23.68,13.21,5.29,5.29,0,0,1-7.9-7A51.5,51.5,0,0,1,180.45,27.1,52,52,0,0,1,212.33,125,5.15,5.15,0,0,1,210,125.52Z"/></svg>