<svg id="Ebene_1" data-name="Ebene 1" xmlns="http://www.w3.org/2000/svg" viewBox="0 0 256 256"><title>weatherIcon_11</title><path d="M214.52,176.78H36.42a5.29,5.29,0,0,1,0-10.58h178.1a5.29,5.29,0,0,1,0,10.58Z"/><path d="M224.7,155.15H25.17a5.29,5.29,0,1,1,0-10.57H224.7a5.29,5.29,0,1,1,0,10.57Z"/><path d="M218.8,133.52H32.4a5.29,5.29,0,1,1,0-10.57H218.8a5.29,5.29,0,1,1,0,10.57Z"/><path d="M203.4,111.9H50.19a5.29,5.29,0,0,1,0-10.57H203.4a5.29,5.29,0,1,1,0,10.57Z"/><path d="M181.58,68.65H126.77a5.29,5.29,0,0,1,0-10.57h54.81a5.29,5.29,0,1,1,0,10.57Z"/><path d="M94.89,89.32H64.39a5.29,5.29,0,1,1,0-10.57h30.5a5.29,5.29,0,0,1,0,10.57Z"/><path d="M192.16,89.8h-76a5.29,5.29,0,0,1,0-10.58h76a5.29,5.29,0,0,1,0,10.58Z"/><path d="M200.42,197.92H54.05a5.29,5.29,0,1,1,0-10.57H200.42a5.29,5.29,0,1,1,0,10.57Z"/></svg>