<svg id="Ebene_1" data-name="Ebene 1" xmlns="http://www.w3.org/2000/svg" viewBox="0 0 256 256"><title>weatherIcon_12</title><path d="M191,171.09H63.43c-25.5,0-44.73-18.3-44.73-42.56a44.54,44.54,0,0,1,29.21-42A37.47,37.47,0,0,1,47.34,80a37.05,37.05,0,0,1,57.72-30.74A54.46,54.46,0,0,1,206,77.74a59.26,59.26,0,0,1-.48,6.32,44.73,44.73,0,0,1-14.53,87ZM84.38,53.56A26.5,26.5,0,0,0,57.91,80a26.19,26.19,0,0,0,1.38,8.44A5.29,5.29,0,0,1,55.5,95.3a34,34,0,0,0-26.22,33.23c0,18.24,14.68,32,34.15,32H191a34.16,34.16,0,0,0,7.79-67.42,5.29,5.29,0,0,1-4.41-5.21,6,6,0,0,1,.07-.85,82,82,0,0,0,1-9.3,43.89,43.89,0,0,0-83.87-18.11A5.29,5.29,0,0,1,103,61.2,26.36,26.36,0,0,0,84.38,53.56Z"/><path d="M78.68,190.61c12.14,12.14,12.63,24.94,12.63,24.94a12.63,12.63,0,1,1-25.26,0S66.53,202.75,78.68,190.61Z"/><path d="M78.68,228.71a13.18,13.18,0,0,1-13.16-13.16c0-.15.64-13.16,12.79-25.31l.37-.37.37.37c12.15,12.15,12.78,25.16,12.79,25.29A13.19,13.19,0,0,1,78.68,228.71Zm0-37.36c-11.49,11.74-12.11,24.1-12.11,24.22a12.11,12.11,0,0,0,24.22,0C90.78,215.45,90.16,203.09,78.68,191.35Z"/><path d="M176.2,190.61c12.15,12.15,12.63,24.95,12.63,24.95a12.63,12.63,0,0,1-25.26,0S164.05,202.76,176.2,190.61Z"/><path d="M176.2,228.71A13.17,13.17,0,0,1,163,215.56c0-.15.64-13.17,12.78-25.32l.38-.37.37.37c12.15,12.15,12.78,25.17,12.79,25.3A13.18,13.18,0,0,1,176.2,228.71Zm0-37.35c-11.49,11.73-12.1,24.09-12.11,24.22a12.11,12.11,0,0,0,24.22,0C188.31,215.45,187.69,203.09,176.2,191.36Z"/><path d="M127.43,202.46c12.15,12.15,12.64,24.94,12.64,24.94a12.63,12.63,0,1,1-25.26,0S115.29,214.61,127.43,202.46Z"/><path d="M127.43,240.56a13.17,13.17,0,0,1-13.15-13.16c0-.15.63-13.16,12.78-25.31l.37-.37.38.37c12.15,12.15,12.78,25.16,12.78,25.29A13.17,13.17,0,0,1,127.43,240.56Zm0-37.35c-11.48,11.73-12.09,24.09-12.1,24.21a12.11,12.11,0,0,0,24.21,0C139.54,227.3,138.92,214.94,127.43,203.21Z"/></svg>