<svg id="Ebene_1" data-name="Ebene 1" xmlns="http://www.w3.org/2000/svg" viewBox="0 0 256 256"><title>weatherIcon_44</title><path d="M163,176.53H74.48c-18.62,0-32.66-13.4-32.66-31.16a32.54,32.54,0,0,1,20.1-30.18,27,27,0,0,1-.23-3.49,27.34,27.34,0,0,1,41.19-23.56,39.42,39.42,0,0,1,72.15,22c0,1-.09,2.15-.21,3.31A32.66,32.66,0,0,1,163,176.53ZM89,94.94A16.79,16.79,0,0,0,73.13,117a5.28,5.28,0,0,1-3.78,6.83,22,22,0,0,0-17,21.5c0,11.74,9.5,20.59,22.09,20.59H163a22.09,22.09,0,0,0,5.1-43.59,5.29,5.29,0,0,1-4.37-5.21,6.11,6.11,0,0,1,.07-.86,54.43,54.43,0,0,0,.66-6.19,28.85,28.85,0,0,0-55.12-11.9,5.07,5.07,0,0,1-.8,1.26,5.29,5.29,0,0,1-7.73.32A16.69,16.69,0,0,0,89,94.94Z"/><path d="M178.85,123.87a5.29,5.29,0,1,1,0-10.57c18.44,0,35.08-11.87,41-27.45A38.85,38.85,0,0,1,165.5,36.94c-14.12,5.66-23,17.88-23,33a5.29,5.29,0,1,1-10.57,0c0-24.69,17.88-43.39,44.48-46.52a5.29,5.29,0,0,1,4.46,8.88,28.26,28.26,0,1,0,42.49,37.2,5.29,5.29,0,0,1,9.39,3.26c0,.23,0,.47,0,.71C232.8,100.31,207.59,123.87,178.85,123.87Z"/><path d="M76.83,199.48a6.73,6.73,0,1,1-6.73-6.73A6.73,6.73,0,0,1,76.83,199.48Z"/><path d="M70.1,208a8.49,8.49,0,1,1,8.49-8.48A8.48,8.48,0,0,1,70.1,208Zm0-13.44a5,5,0,1,0,5,5A5,5,0,0,0,70.1,194.52Z"/><path d="M125.46,199.48a6.72,6.72,0,1,1-6.73-6.73A6.73,6.73,0,0,1,125.46,199.48Z"/><path d="M118.73,208a8.49,8.49,0,1,1,8.49-8.48A8.49,8.49,0,0,1,118.73,208Zm0-13.44a5,5,0,1,0,5,5A5,5,0,0,0,118.73,194.52Z"/><path d="M174.09,199.48a6.72,6.72,0,1,1-6.72-6.73A6.72,6.72,0,0,1,174.09,199.48Z"/><path d="M167.37,208a8.49,8.49,0,1,1,8.48-8.48A8.49,8.49,0,0,1,167.37,208Zm0-13.44a5,5,0,1,0,4.95,5A5,5,0,0,0,167.37,194.52Z"/><path d="M101.5,224.15a6.73,6.73,0,1,1-6.73-6.72A6.72,6.72,0,0,1,101.5,224.15Z"/><path d="M94.77,232.63a8.49,8.49,0,1,1,8.49-8.48A8.48,8.48,0,0,1,94.77,232.63Zm0-13.44a5,5,0,1,0,5,5A5,5,0,0,0,94.77,219.19Z"/><path d="M150.13,224.15a6.72,6.72,0,1,1-6.73-6.72A6.72,6.72,0,0,1,150.13,224.15Z"/><path d="M143.4,232.63a8.49,8.49,0,1,1,8.49-8.48A8.49,8.49,0,0,1,143.4,232.63Zm0-13.44a5,5,0,1,0,5,5A5,5,0,0,0,143.4,219.19Z"/></svg>