<svg id="Ebene_1" data-name="Ebene 1" xmlns="http://www.w3.org/2000/svg" viewBox="0 0 256 256"><title>weatherIcon_14</title><path d="M53,223.58a4.84,4.84,0,0,1-.75-.06,5.28,5.28,0,0,1-4.49-6l2.73-19.36a5.29,5.29,0,0,1,10.47,1.48L58.21,219A5.29,5.29,0,0,1,53,223.58Z"/><path d="M78.6,242.7a6.3,6.3,0,0,1-.75,0,5.29,5.29,0,0,1-4.49-6l5.47-38.48a5.28,5.28,0,1,1,10.46,1.48l-5.46,38.49A5.3,5.3,0,0,1,78.6,242.7Z"/><path d="M108,242.7a6.3,6.3,0,0,1-.75,0,5.29,5.29,0,0,1-4.49-6l5.47-38.48a5.28,5.28,0,1,1,10.46,1.48l-5.46,38.48A5.3,5.3,0,0,1,108,242.7Z"/><path d="M139,223.58a4.71,4.71,0,0,1-.74-.06,5.29,5.29,0,0,1-4.5-6l2.74-19.36A5.29,5.29,0,0,1,147,199.67L144.27,219A5.28,5.28,0,0,1,139,223.58Z"/><path d="M148.35,180.84H50.09c-20.34,0-35.68-14.62-35.68-34A35.52,35.52,0,0,1,36.78,113.7a29.78,29.78,0,0,1,29.45-34A29.65,29.65,0,0,1,81.8,84.08a43.18,43.18,0,0,1,79.33,23.61c0,1.17-.12,2.65-.27,4a35.68,35.68,0,0,1-12.51,69.1ZM66.23,90.27A19.21,19.21,0,0,0,48,115.57a5.27,5.27,0,0,1-3.79,6.83A25,25,0,0,0,25,146.82c0,13.37,10.79,23.45,25.1,23.45h98.26a25.12,25.12,0,0,0,5.77-49.56,5.27,5.27,0,0,1-4.38-5.2,6,6,0,0,1,.07-.85,61.38,61.38,0,0,0,.75-7A32.61,32.61,0,0,0,88.25,94.23a5.28,5.28,0,0,1-8.53,1.58A19.1,19.1,0,0,0,66.23,90.27Z"/><path d="M175.55,136.91a5.29,5.29,0,0,1-2.32-10,32.94,32.94,0,0,0-20.21-62,32.56,32.56,0,0,0-18.85,10.51,5.29,5.29,0,1,1-7.89-7,43.09,43.09,0,0,1,24.89-13.88,43.51,43.51,0,0,1,26.69,81.94A5.15,5.15,0,0,1,175.55,136.91Z"/><path d="M158.83,38.53a5.29,5.29,0,0,1-5.29-5.25l-.09-14.84a5.28,5.28,0,0,1,5.25-5.32h0A5.28,5.28,0,0,1,164,18.37l.1,14.84a5.28,5.28,0,0,1-5.25,5.32Z"/><path d="M221.45,108.37a5.29,5.29,0,0,1,0-10.57l14.85-.1h0a5.29,5.29,0,0,1,0,10.57l-14.85.1Z"/><path d="M206.16,57.45a5.29,5.29,0,0,1-3.76-9l10.43-10.56a5.29,5.29,0,1,1,7.52,7.43L209.93,55.88A5.28,5.28,0,0,1,206.16,57.45Z"/><path d="M107.8,57.45A5.27,5.27,0,0,1,104,55.88L93.61,45.32a5.29,5.29,0,1,1,7.53-7.43l10.42,10.56a5.29,5.29,0,0,1-3.76,9Z"/><path d="M210.78,162.09a5.32,5.32,0,0,1-3.77-1.57L196.59,150a5.29,5.29,0,1,1,7.52-7.43l10.43,10.57a5.28,5.28,0,0,1-3.76,9Z"/></svg>