<svg id="Ebene_1" data-name="Ebene 1" xmlns="http://www.w3.org/2000/svg" viewBox="0 0 256 256"><title>weatherIcon_18</title><path d="M191.56,165H59.35C33,165,13.16,146.08,13.16,121A46,46,0,0,1,43.48,77.63a37.76,37.76,0,0,1-.62-6.9,38.22,38.22,0,0,1,59.71-31.59A56.28,56.28,0,0,1,206.94,68.36a61.18,61.18,0,0,1-.52,6.69A46.19,46.19,0,0,1,191.56,165ZM81.06,43.1a27.67,27.67,0,0,0-26.2,36.45,5.28,5.28,0,0,1-3.78,6.83A35.47,35.47,0,0,0,23.73,121c0,19,15.31,33.38,35.62,33.38H191.56a35.62,35.62,0,0,0,8.1-70.3,5.29,5.29,0,0,1-4.39-5.21,6,6,0,0,1,.07-.85,85.61,85.61,0,0,0,1-9.68A45.7,45.7,0,0,0,109,49.5a5.28,5.28,0,0,1-8.53,1.58A27.47,27.47,0,0,0,81.06,43.1Z"/><path d="M67.72,215.16a6.3,6.3,0,0,1-.75,0,5.29,5.29,0,0,1-4.49-6l3.52-25a5.29,5.29,0,0,1,10.47,1.48l-3.52,25A5.3,5.3,0,0,1,67.72,215.16Z"/><path d="M100.76,239.83a6.3,6.3,0,0,1-.75-.05,5.29,5.29,0,0,1-4.49-6l7-49.63A5.28,5.28,0,1,1,113,185.66l-7,49.63A5.29,5.29,0,0,1,100.76,239.83Z"/><path d="M138.63,239.83a6.3,6.3,0,0,1-.75-.05,5.29,5.29,0,0,1-4.49-6l7.05-49.63a5.28,5.28,0,1,1,10.46,1.49l-7.05,49.63A5.27,5.27,0,0,1,138.63,239.83Z"/><path d="M178.72,215.16a6.3,6.3,0,0,1-.75,0,5.29,5.29,0,0,1-4.49-6l3.52-25a5.29,5.29,0,0,1,10.47,1.48l-3.52,25A5.3,5.3,0,0,1,178.72,215.16Z"/></svg>