<svg id="Ebene_1" data-name="Ebene 1" xmlns="http://www.w3.org/2000/svg" viewBox="0 0 256 256"><title>weatherIcon_25</title><path d="M195.59,170.34H63.37c-26.33,0-46.19-18.89-46.19-43.94A46,46,0,0,1,47.5,83a37.76,37.76,0,0,1-.62-6.9,38.21,38.21,0,0,1,59.71-31.59A56.28,56.28,0,0,1,211,73.73a63.63,63.63,0,0,1-.51,6.69,46.19,46.19,0,0,1-14.86,89.92ZM85.09,48.47A27.66,27.66,0,0,0,58.88,84.91a5.28,5.28,0,0,1-3.78,6.84A35.46,35.46,0,0,0,27.76,126.4c0,19,15.31,33.37,35.61,33.37H195.59a35.62,35.62,0,0,0,8.11-70.3,5.28,5.28,0,0,1-4.4-5.21,5,5,0,0,1,.07-.86,88,88,0,0,0,1-9.67,45.7,45.7,0,0,0-87.33-18.86,5.23,5.23,0,0,1-2.45,2.55,5.29,5.29,0,0,1-6.08-1A27.47,27.47,0,0,0,85.09,48.47Z"/><path d="M88.49,219.68a5.26,5.26,0,0,1-3.74-1.55L65.51,198.9A5.29,5.29,0,0,1,73,191.42l19.24,19.24a5.29,5.29,0,0,1-3.74,9Z"/><path d="M69.25,220.12a5.28,5.28,0,0,1-3.74-9L85,191.64a5.29,5.29,0,1,1,7.48,7.48L73,218.58A5.26,5.26,0,0,1,69.25,220.12Z"/><path d="M187.07,219.46a5.27,5.27,0,0,1-3.74-1.55l-19.24-19.23a5.29,5.29,0,1,1,7.47-7.48l19.24,19.24a5.29,5.29,0,0,1-3.73,9Z"/><path d="M167.83,219.9a5.29,5.29,0,0,1-3.74-9l19.46-19.46A5.29,5.29,0,1,1,191,198.9l-19.46,19.45A5.22,5.22,0,0,1,167.83,219.9Z"/><path d="M136.67,240.09a5.29,5.29,0,0,1-3.74-1.54l-19.24-19.24a5.29,5.29,0,1,1,7.48-7.48l19.24,19.24a5.28,5.28,0,0,1-3.74,9Z"/><path d="M117.43,240.54a5.29,5.29,0,0,1-3.74-9l19.46-19.46a5.29,5.29,0,0,1,7.48,7.48L121.17,239A5.27,5.27,0,0,1,117.43,240.54Z"/></svg>