<svg id="Ebene_1" data-name="Ebene 1" xmlns="http://www.w3.org/2000/svg" viewBox="0 0 256 256"><title>weatherIcon_1</title><path d="M128.19,191.68A63.65,63.65,0,1,1,191.83,128,63.72,63.72,0,0,1,128.19,191.68Zm0-116.71A53.07,53.07,0,1,0,181.26,128,53.13,53.13,0,0,0,128.19,75Z"/><path d="M128.19,46.73a5.28,5.28,0,0,1-5.29-5.28V23.08a5.29,5.29,0,1,1,10.58,0V41.45A5.28,5.28,0,0,1,128.19,46.73Z"/><path d="M41.85,133.32H23.48a5.29,5.29,0,1,1,0-10.57H41.85a5.29,5.29,0,1,1,0,10.57Z"/><path d="M203.68,208.82a5.26,5.26,0,0,1-3.74-1.55L185.5,192.82a5.28,5.28,0,0,1,7.47-7.47l14.45,14.45a5.28,5.28,0,0,1-3.74,9Z"/><path d="M67.14,72.28a5.27,5.27,0,0,1-3.74-1.55L49,56.28a5.29,5.29,0,1,1,7.48-7.48L70.88,63.25a5.29,5.29,0,0,1-3.74,9Z"/><path d="M52.68,208.83a5.29,5.29,0,0,1-3.73-9L63.4,185.35a5.29,5.29,0,1,1,7.47,7.48L56.42,207.28A5.27,5.27,0,0,1,52.68,208.83Z"/><path d="M189.23,72.28a5.29,5.29,0,0,1-3.74-9L199.94,48.8a5.29,5.29,0,1,1,7.48,7.48L193,70.73A5.3,5.3,0,0,1,189.23,72.28Z"/><path d="M189.24,72.28a5.29,5.29,0,0,1-3.74-9L200,48.8a5.29,5.29,0,0,1,7.48,7.48L193,70.73A5.3,5.3,0,0,1,189.24,72.28Z"/><path d="M52.69,208.82a5.29,5.29,0,0,1-3.74-9L63.4,185.35a5.29,5.29,0,1,1,7.48,7.48L56.43,207.28A5.28,5.28,0,0,1,52.69,208.82Z"/><path d="M203.5,209a5.22,5.22,0,0,1-3.73-1.55L185.32,193a5.29,5.29,0,0,1,7.47-7.48L207.24,200a5.29,5.29,0,0,1-3.74,9Z"/><path d="M67,72.46a5.29,5.29,0,0,1-3.74-1.55L48.77,56.46A5.29,5.29,0,0,1,56.25,49L70.7,63.43a5.29,5.29,0,0,1-3.74,9Z"/><path d="M128,238.21h0a5.28,5.28,0,0,1-5.28-5.29V214.55a5.28,5.28,0,0,1,5.29-5.28h0a5.27,5.27,0,0,1,5.28,5.28v18.37A5.29,5.29,0,0,1,128,238.21Z"/><path d="M128,47.17a5.28,5.28,0,0,1-5.28-5.29V23.51a5.29,5.29,0,0,1,10.57,0V41.88A5.29,5.29,0,0,1,128,47.17Z"/><path d="M41.67,133.5H23.3a5.29,5.29,0,1,1,0-10.57H41.67a5.29,5.29,0,0,1,0,10.57Z"/><path d="M232.7,133.5H214.33a5.29,5.29,0,1,1,0-10.57h18.38a5.29,5.29,0,0,1,0,10.57Z"/></svg>